<?xml version="1.0" encoding="UTF-8" standalone="no"?>
<!DOCTYPE svg PUBLIC "-//W3C//DTD SVG 1.1//EN" "http://www.w3.org/Graphics/SVG/1.1/DTD/svg11.dtd">
<svg width="100%" height="100%" viewBox="0 0 512 512" version="1.1" xmlns="http://www.w3.org/2000/svg" xmlns:xlink="http://www.w3.org/1999/xlink" xml:space="preserve" xmlns:serif="http://www.serif.com/" style="fill-rule:evenodd;clip-rule:evenodd;stroke-linejoin:round;stroke-miterlimit:2;">
    <g transform="matrix(3.20175,0,0,3.20175,-1677.73,-1250.11)">
        <path d="M603.959,408.04C606.039,400.686 608.921,398.305 613.974,397.714C618.554,397.179 625.955,402.172 631.155,414.243C636.354,426.315 635.405,447.044 627.746,457.371C620.463,467.191 611.7,474.006 603.959,474.006C596.218,474.006 587.456,467.191 580.173,457.371C572.513,447.044 571.564,426.315 576.764,414.243C581.963,402.172 589.365,397.179 593.945,397.714C598.997,398.305 601.879,400.686 603.959,408.04Z" style="fill:rgb(255,0,146);fill-opacity:0.25;"/>
    </g>
    <g transform="matrix(0.828674,3.09265,-3.09265,0.828674,1215.75,-1997.47)">
        <path d="M603.959,408.04C606.039,400.686 608.921,398.305 613.974,397.714C618.554,397.179 625.955,402.172 631.155,414.243C636.354,426.315 635.405,447.044 627.746,457.371C620.463,467.191 611.7,474.006 603.959,474.006C596.218,474.006 587.456,467.191 580.173,457.371C572.513,447.044 571.564,426.315 576.764,414.243C581.963,402.172 589.365,397.179 593.945,397.714C598.997,398.305 601.879,400.686 603.959,408.04Z" style="fill:rgb(255,0,146);fill-opacity:0.25;"/>
    </g>
    <g transform="matrix(-2.7728,1.60088,-1.60088,-2.7728,2686.53,603.983)">
        <path d="M603.959,408.04C606.039,400.686 608.921,398.305 613.974,397.714C618.554,397.179 625.955,402.172 631.155,414.243C636.354,426.315 635.405,447.044 627.746,457.371C620.463,467.191 611.7,474.006 603.959,474.006C596.218,474.006 587.456,467.191 580.173,457.371C572.513,447.044 571.564,426.315 576.764,414.243C581.963,402.172 589.365,397.179 593.945,397.714C598.997,398.305 601.879,400.686 603.959,408.04Z" style="fill:rgb(255,0,146);fill-opacity:0.25;"/>
    </g>
    <g transform="matrix(-2.7728,-1.60088,1.60088,-2.7728,1174.78,2537.71)">
        <path d="M603.959,408.04C606.039,400.686 608.921,398.305 613.974,397.714C618.554,397.179 625.955,402.172 631.155,414.243C636.354,426.315 635.405,447.044 627.746,457.371C620.463,467.191 611.7,474.006 603.959,474.006C596.218,474.006 587.456,467.191 580.173,457.371C572.513,447.044 571.564,426.315 576.764,414.243C581.963,402.172 589.365,397.179 593.945,397.714C598.997,398.305 601.879,400.686 603.959,408.04Z" style="fill:rgb(255,0,146);fill-opacity:0.25;"/>
    </g>
    <g transform="matrix(0.828674,-3.09265,3.09265,0.828674,-1704.72,1738.2)">
        <path d="M603.959,408.04C606.039,400.686 608.921,398.305 613.974,397.714C618.554,397.179 625.955,402.172 631.155,414.243C636.354,426.315 635.405,447.044 627.746,457.371C620.463,467.191 611.7,474.006 603.959,474.006C596.218,474.006 587.456,467.191 580.173,457.371C572.513,447.044 571.564,426.315 576.764,414.243C581.963,402.172 589.365,397.179 593.945,397.714C598.997,398.305 601.879,400.686 603.959,408.04Z" style="fill:rgb(255,0,146);fill-opacity:0.25;"/>
    </g>
    <g transform="matrix(3.20175,0,0,3.20175,-1677.73,-1250.11)">
        <path d="M603.959,408.04C606.039,400.686 608.921,398.305 613.974,397.714C618.554,397.179 625.955,402.172 631.155,414.243C636.354,426.315 635.405,447.044 627.746,457.371C620.463,467.191 611.7,474.006 603.959,474.006C596.218,474.006 587.456,467.191 580.173,457.371C572.513,447.044 571.564,426.315 576.764,414.243C581.963,402.172 589.365,397.179 593.945,397.714C598.997,398.305 601.879,400.686 603.959,408.04ZM602.156,408.55C601.064,404.689 599.818,402.339 597.962,401.009C596.793,400.172 595.398,399.771 593.727,399.575C592.245,399.402 590.427,400.032 588.475,401.37C585.065,403.708 581.424,408.162 578.485,414.984C573.51,426.535 574.349,446.374 581.678,456.255C585.883,461.925 590.585,466.571 595.296,469.367C598.239,471.114 601.167,472.132 603.959,472.132C606.751,472.132 609.68,471.114 612.622,469.367C617.333,466.571 622.035,461.925 626.241,456.255C633.569,446.374 634.408,426.535 629.433,414.984C626.495,408.162 622.853,403.708 619.443,401.37C617.491,400.032 615.673,399.402 614.191,399.575C612.52,399.771 611.125,400.172 609.956,401.009C608.1,402.339 606.854,404.689 605.762,408.55C605.534,409.357 604.798,409.914 603.959,409.914C603.121,409.914 602.384,409.357 602.156,408.55Z" style="fill:rgb(255,0,146);fill-opacity:0.2;"/>
    </g>
    <g transform="matrix(0.828674,3.09265,-3.09265,0.828674,1215.75,-1997.47)">
        <path d="M603.959,408.04C606.039,400.686 608.921,398.305 613.974,397.714C618.554,397.179 625.955,402.172 631.155,414.243C636.354,426.315 635.405,447.044 627.746,457.371C620.463,467.191 611.7,474.006 603.959,474.006C596.218,474.006 587.456,467.191 580.173,457.371C572.513,447.044 571.564,426.315 576.764,414.243C581.963,402.172 589.365,397.179 593.945,397.714C598.997,398.305 601.879,400.686 603.959,408.04ZM602.156,408.55C601.064,404.689 599.818,402.339 597.962,401.009C596.793,400.172 595.398,399.771 593.727,399.575C592.245,399.402 590.427,400.032 588.475,401.37C585.065,403.708 581.424,408.162 578.485,414.984C573.51,426.535 574.349,446.374 581.678,456.255C585.883,461.925 590.585,466.571 595.296,469.367C598.239,471.114 601.167,472.132 603.959,472.132C606.751,472.132 609.68,471.114 612.622,469.367C617.333,466.571 622.035,461.925 626.241,456.255C633.569,446.374 634.408,426.535 629.433,414.984C626.495,408.162 622.853,403.708 619.443,401.37C617.491,400.032 615.673,399.402 614.191,399.575C612.52,399.771 611.125,400.172 609.956,401.009C608.1,402.339 606.854,404.689 605.762,408.55C605.534,409.357 604.798,409.914 603.959,409.914C603.121,409.914 602.384,409.357 602.156,408.55Z" style="fill:rgb(255,0,146);fill-opacity:0.2;"/>
    </g>
    <g transform="matrix(-2.7728,1.60088,-1.60088,-2.7728,2686.53,603.983)">
        <path d="M603.959,408.04C606.039,400.686 608.921,398.305 613.974,397.714C618.554,397.179 625.955,402.172 631.155,414.243C636.354,426.315 635.405,447.044 627.746,457.371C620.463,467.191 611.7,474.006 603.959,474.006C596.218,474.006 587.456,467.191 580.173,457.371C572.513,447.044 571.564,426.315 576.764,414.243C581.963,402.172 589.365,397.179 593.945,397.714C598.997,398.305 601.879,400.686 603.959,408.04ZM602.156,408.55C601.064,404.689 599.818,402.339 597.962,401.009C596.793,400.172 595.398,399.771 593.727,399.575C592.245,399.402 590.427,400.032 588.475,401.37C585.065,403.708 581.424,408.162 578.485,414.984C573.51,426.535 574.349,446.374 581.678,456.255C585.883,461.925 590.585,466.571 595.296,469.367C598.239,471.114 601.167,472.132 603.959,472.132C606.751,472.132 609.68,471.114 612.622,469.367C617.333,466.571 622.035,461.925 626.241,456.255C633.569,446.374 634.408,426.535 629.433,414.984C626.495,408.162 622.853,403.708 619.443,401.37C617.491,400.032 615.673,399.402 614.191,399.575C612.52,399.771 611.125,400.172 609.956,401.009C608.1,402.339 606.854,404.689 605.762,408.55C605.534,409.357 604.798,409.914 603.959,409.914C603.121,409.914 602.384,409.357 602.156,408.55Z" style="fill:rgb(255,0,146);fill-opacity:0.2;"/>
    </g>
    <g transform="matrix(-2.7728,-1.60088,1.60088,-2.7728,1174.78,2537.71)">
        <path d="M603.959,408.04C606.039,400.686 608.921,398.305 613.974,397.714C618.554,397.179 625.955,402.172 631.155,414.243C636.354,426.315 635.405,447.044 627.746,457.371C620.463,467.191 611.7,474.006 603.959,474.006C596.218,474.006 587.456,467.191 580.173,457.371C572.513,447.044 571.564,426.315 576.764,414.243C581.963,402.172 589.365,397.179 593.945,397.714C598.997,398.305 601.879,400.686 603.959,408.04ZM602.156,408.55C601.064,404.689 599.818,402.339 597.962,401.009C596.793,400.172 595.398,399.771 593.727,399.575C592.245,399.402 590.427,400.032 588.475,401.37C585.065,403.708 581.424,408.162 578.485,414.984C573.51,426.535 574.349,446.374 581.678,456.255C585.883,461.925 590.585,466.571 595.296,469.367C598.239,471.114 601.167,472.132 603.959,472.132C606.751,472.132 609.68,471.114 612.622,469.367C617.333,466.571 622.035,461.925 626.241,456.255C633.569,446.374 634.408,426.535 629.433,414.984C626.495,408.162 622.853,403.708 619.443,401.37C617.491,400.032 615.673,399.402 614.191,399.575C612.52,399.771 611.125,400.172 609.956,401.009C608.1,402.339 606.854,404.689 605.762,408.55C605.534,409.357 604.798,409.914 603.959,409.914C603.121,409.914 602.384,409.357 602.156,408.55Z" style="fill:rgb(255,0,146);fill-opacity:0.2;"/>
    </g>
    <g transform="matrix(0.828674,-3.09265,3.09265,0.828674,-1704.72,1738.2)">
        <path d="M603.959,408.04C606.039,400.686 608.921,398.305 613.974,397.714C618.554,397.179 625.955,402.172 631.155,414.243C636.354,426.315 635.405,447.044 627.746,457.371C620.463,467.191 611.7,474.006 603.959,474.006C596.218,474.006 587.456,467.191 580.173,457.371C572.513,447.044 571.564,426.315 576.764,414.243C581.963,402.172 589.365,397.179 593.945,397.714C598.997,398.305 601.879,400.686 603.959,408.04ZM602.156,408.55C601.064,404.689 599.818,402.339 597.962,401.009C596.793,400.172 595.398,399.771 593.727,399.575C592.245,399.402 590.427,400.032 588.475,401.37C585.065,403.708 581.424,408.162 578.485,414.984C573.51,426.535 574.349,446.374 581.678,456.255C585.883,461.925 590.585,466.571 595.296,469.367C598.239,471.114 601.167,472.132 603.959,472.132C606.751,472.132 609.68,471.114 612.622,469.367C617.333,466.571 622.035,461.925 626.241,456.255C633.569,446.374 634.408,426.535 629.433,414.984C626.495,408.162 622.853,403.708 619.443,401.37C617.491,400.032 615.673,399.402 614.191,399.575C612.52,399.771 611.125,400.172 609.956,401.009C608.1,402.339 606.854,404.689 605.762,408.55C605.534,409.357 604.798,409.914 603.959,409.914C603.121,409.914 602.384,409.357 602.156,408.55Z" style="fill:rgb(255,0,146);fill-opacity:0.2;"/>
    </g>
</svg>
