<?xml version="1.0" encoding="UTF-8" standalone="no"?>
<!DOCTYPE svg PUBLIC "-//W3C//DTD SVG 1.1//EN" "http://www.w3.org/Graphics/SVG/1.1/DTD/svg11.dtd">
<svg width="100%" height="100%" viewBox="0 0 512 512" version="1.1" xmlns="http://www.w3.org/2000/svg" xmlns:xlink="http://www.w3.org/1999/xlink" xml:space="preserve" xmlns:serif="http://www.serif.com/" style="fill-rule:evenodd;clip-rule:evenodd;stroke-linejoin:round;stroke-miterlimit:2;">
    <g transform="matrix(0.9375,0,0,0.9375,16,16)">
        <circle cx="256" cy="256" r="256" style="fill:rgb(240,232,235);"/>
        <path d="M256,0C397.29,0 512,114.71 512,256C512,397.29 397.29,512 256,512C114.71,512 0,397.29 0,256C0,114.71 114.71,0 256,0ZM256,17.067C124.129,17.067 17.067,124.129 17.067,256C17.067,387.871 124.129,494.933 256,494.933C387.871,494.933 494.933,387.871 494.933,256C494.933,124.129 387.871,17.067 256,17.067Z" style="fill:rgb(230,215,221);"/>
    </g>
    <g transform="matrix(0.9375,0,0,0.9375,16,16)">
        <path d="M256,0C397.29,0 512,114.71 512,256C512,397.29 397.29,512 256,512L256,0Z" style="fill:rgb(31,43,48);"/>
    </g>
    <g transform="matrix(0.9375,0,0,0.9375,16,16)">
        <path d="M256,0C397.29,0 512,114.71 512,256C512,397.29 397.29,512 256,512L256,494.933C387.871,494.933 494.933,387.871 494.933,256C494.933,124.129 387.871,17.067 256,17.067L256,0Z" style="fill:rgb(64,79,86);"/>
    </g>
    <g transform="matrix(2.61148,0,0,2.61148,-1321.23,-972.808)">
        <path d="M603.959,408.04C606.039,400.686 608.921,398.305 613.974,397.714C618.554,397.179 625.955,402.172 631.155,414.243C636.354,426.315 635.405,447.044 627.746,457.371C620.463,467.191 611.7,474.006 603.959,474.006C596.218,474.006 587.456,467.191 580.173,457.371C572.513,447.044 571.564,426.315 576.764,414.243C581.963,402.172 589.365,397.179 593.945,397.714C598.997,398.305 601.879,400.686 603.959,408.04Z" style="fill:rgb(235,162,189);fill-opacity:0.5;"/>
    </g>
    <g transform="matrix(0.806992,2.48367,-2.48367,0.806992,937.276,-1623.75)">
        <path d="M603.959,408.04C606.039,400.686 608.921,398.305 613.974,397.714C618.554,397.179 625.955,402.172 631.155,414.243C636.354,426.315 635.405,447.044 627.746,457.371C620.463,467.191 611.7,474.006 603.959,474.006C596.218,474.006 587.456,467.191 580.173,457.371C572.513,447.044 571.564,426.315 576.764,414.243C581.963,402.172 589.365,397.179 593.945,397.714C598.997,398.305 601.879,400.686 603.959,408.04Z" style="fill:rgb(235,162,189);fill-opacity:0.5;"/>
    </g>
    <g transform="matrix(-2.11273,1.53499,-1.53499,-2.11273,2254.28,323.055)">
        <path d="M603.959,408.04C606.039,400.686 608.921,398.305 613.974,397.714C618.554,397.179 625.955,402.172 631.155,414.243C636.354,426.315 635.405,447.044 627.746,457.371C620.463,467.191 611.7,474.006 603.959,474.006C596.218,474.006 587.456,467.191 580.173,457.371C572.513,447.044 571.564,426.315 576.764,414.243C581.963,402.172 589.365,397.179 593.945,397.714C598.997,398.305 601.879,400.686 603.959,408.04Z" style="fill:rgb(235,162,189);fill-opacity:0.5;"/>
    </g>
    <g transform="matrix(-2.11273,-1.53499,1.53499,-2.11273,809.729,2177.2)">
        <path d="M603.959,408.04C606.039,400.686 608.921,398.305 613.974,397.714C618.554,397.179 625.955,402.172 631.155,414.243C636.354,426.315 635.405,447.044 627.746,457.371C620.463,467.191 611.7,474.006 603.959,474.006C596.218,474.006 587.456,467.191 580.173,457.371C572.513,447.044 571.564,426.315 576.764,414.243C581.963,402.172 589.365,397.179 593.945,397.714C598.997,398.305 601.879,400.686 603.959,408.04Z" style="fill:rgb(235,162,189);fill-opacity:0.5;"/>
    </g>
    <g transform="matrix(0.806992,-2.48367,2.48367,0.806992,-1400.06,1376.31)">
        <path d="M603.959,408.04C606.039,400.686 608.921,398.305 613.974,397.714C618.554,397.179 625.955,402.172 631.155,414.243C636.354,426.315 635.405,447.044 627.746,457.371C620.463,467.191 611.7,474.006 603.959,474.006C596.218,474.006 587.456,467.191 580.173,457.371C572.513,447.044 571.564,426.315 576.764,414.243C581.963,402.172 589.365,397.179 593.945,397.714C598.997,398.305 601.879,400.686 603.959,408.04Z" style="fill:rgb(235,162,189);fill-opacity:0.5;"/>
    </g>
    <g transform="matrix(2.61148,0,0,2.61148,-1321.23,-972.808)">
        <path d="M603.959,408.04C606.039,400.686 608.921,398.305 613.974,397.714C618.554,397.179 625.955,402.172 631.155,414.243C636.354,426.315 635.405,447.044 627.746,457.371C620.463,467.191 611.7,474.006 603.959,474.006C596.218,474.006 587.456,467.191 580.173,457.371C572.513,447.044 571.564,426.315 576.764,414.243C581.963,402.172 589.365,397.179 593.945,397.714C598.997,398.305 601.879,400.686 603.959,408.04ZM598.064,409.707C596.96,405.806 595.914,404.113 593.233,403.8C592.184,403.677 591.03,404.628 589.622,405.861C587.078,408.088 584.543,411.67 582.391,416.667C577.926,427.034 578.516,444.852 585.094,453.721C588.327,458.08 591.863,461.797 595.476,464.4C598.362,466.48 601.213,467.879 603.959,467.879C606.705,467.879 609.556,466.48 612.443,464.4C616.055,461.797 619.592,458.08 622.825,453.721C629.403,444.852 629.993,427.034 625.527,416.667C623.375,411.67 620.84,408.088 618.296,405.861C616.888,404.628 615.734,403.677 614.685,403.8C612.004,404.113 610.958,405.806 609.855,409.707C609.109,412.345 606.701,414.167 603.959,414.167C601.218,414.167 598.81,412.345 598.064,409.707Z" style="fill:rgb(249,148,185);fill-opacity:0.5;"/>
    </g>
    <g transform="matrix(0.806992,2.48367,-2.48367,0.806992,937.276,-1623.75)">
        <path d="M603.959,408.04C606.039,400.686 608.921,398.305 613.974,397.714C618.554,397.179 625.955,402.172 631.155,414.243C636.354,426.315 635.405,447.044 627.746,457.371C620.463,467.191 611.7,474.006 603.959,474.006C596.218,474.006 587.456,467.191 580.173,457.371C572.513,447.044 571.564,426.315 576.764,414.243C581.963,402.172 589.365,397.179 593.945,397.714C598.997,398.305 601.879,400.686 603.959,408.04ZM598.064,409.707C596.96,405.806 595.914,404.113 593.233,403.8C592.184,403.677 591.03,404.628 589.622,405.861C587.078,408.088 584.543,411.67 582.391,416.667C577.926,427.034 578.516,444.852 585.094,453.721C588.327,458.08 591.863,461.797 595.476,464.4C598.362,466.48 601.213,467.879 603.959,467.879C606.705,467.879 609.556,466.48 612.443,464.4C616.055,461.797 619.592,458.08 622.825,453.721C629.403,444.852 629.993,427.034 625.527,416.667C623.375,411.67 620.84,408.088 618.296,405.861C616.888,404.628 615.734,403.677 614.685,403.8C612.004,404.113 610.958,405.806 609.855,409.707C609.109,412.345 606.701,414.167 603.959,414.167C601.218,414.167 598.81,412.345 598.064,409.707Z" style="fill:rgb(249,148,185);fill-opacity:0.5;"/>
    </g>
    <g transform="matrix(-2.11273,1.53499,-1.53499,-2.11273,2254.28,323.055)">
        <path d="M603.959,408.04C606.039,400.686 608.921,398.305 613.974,397.714C618.554,397.179 625.955,402.172 631.155,414.243C636.354,426.315 635.405,447.044 627.746,457.371C620.463,467.191 611.7,474.006 603.959,474.006C596.218,474.006 587.456,467.191 580.173,457.371C572.513,447.044 571.564,426.315 576.764,414.243C581.963,402.172 589.365,397.179 593.945,397.714C598.997,398.305 601.879,400.686 603.959,408.04ZM598.064,409.707C596.96,405.806 595.914,404.113 593.233,403.8C592.184,403.677 591.03,404.628 589.622,405.861C587.078,408.088 584.543,411.67 582.391,416.667C577.926,427.034 578.516,444.852 585.094,453.721C588.327,458.08 591.863,461.797 595.476,464.4C598.362,466.48 601.213,467.879 603.959,467.879C606.705,467.879 609.556,466.48 612.443,464.4C616.055,461.797 619.592,458.08 622.825,453.721C629.403,444.852 629.993,427.034 625.527,416.667C623.375,411.67 620.84,408.088 618.296,405.861C616.888,404.628 615.734,403.677 614.685,403.8C612.004,404.113 610.958,405.806 609.855,409.707C609.109,412.345 606.701,414.167 603.959,414.167C601.218,414.167 598.81,412.345 598.064,409.707Z" style="fill:rgb(249,148,185);fill-opacity:0.5;"/>
    </g>
    <g transform="matrix(-2.11273,-1.53499,1.53499,-2.11273,809.729,2177.2)">
        <path d="M603.959,408.04C606.039,400.686 608.921,398.305 613.974,397.714C618.554,397.179 625.955,402.172 631.155,414.243C636.354,426.315 635.405,447.044 627.746,457.371C620.463,467.191 611.7,474.006 603.959,474.006C596.218,474.006 587.456,467.191 580.173,457.371C572.513,447.044 571.564,426.315 576.764,414.243C581.963,402.172 589.365,397.179 593.945,397.714C598.997,398.305 601.879,400.686 603.959,408.04ZM598.064,409.707C596.96,405.806 595.914,404.113 593.233,403.8C592.184,403.677 591.03,404.628 589.622,405.861C587.078,408.088 584.543,411.67 582.391,416.667C577.926,427.034 578.516,444.852 585.094,453.721C588.327,458.08 591.863,461.797 595.476,464.4C598.362,466.48 601.213,467.879 603.959,467.879C606.705,467.879 609.556,466.48 612.443,464.4C616.055,461.797 619.592,458.08 622.825,453.721C629.403,444.852 629.993,427.034 625.527,416.667C623.375,411.67 620.84,408.088 618.296,405.861C616.888,404.628 615.734,403.677 614.685,403.8C612.004,404.113 610.958,405.806 609.855,409.707C609.109,412.345 606.701,414.167 603.959,414.167C601.218,414.167 598.81,412.345 598.064,409.707Z" style="fill:rgb(249,148,185);fill-opacity:0.5;"/>
    </g>
    <g transform="matrix(0.806992,-2.48367,2.48367,0.806992,-1400.06,1376.31)">
        <path d="M603.959,408.04C606.039,400.686 608.921,398.305 613.974,397.714C618.554,397.179 625.955,402.172 631.155,414.243C636.354,426.315 635.405,447.044 627.746,457.371C620.463,467.191 611.7,474.006 603.959,474.006C596.218,474.006 587.456,467.191 580.173,457.371C572.513,447.044 571.564,426.315 576.764,414.243C581.963,402.172 589.365,397.179 593.945,397.714C598.997,398.305 601.879,400.686 603.959,408.04ZM598.064,409.707C596.96,405.806 595.914,404.113 593.233,403.8C592.184,403.677 591.03,404.628 589.622,405.861C587.078,408.088 584.543,411.67 582.391,416.667C577.926,427.034 578.516,444.852 585.094,453.721C588.327,458.08 591.863,461.797 595.476,464.4C598.362,466.48 601.213,467.879 603.959,467.879C606.705,467.879 609.556,466.48 612.443,464.4C616.055,461.797 619.592,458.08 622.825,453.721C629.403,444.852 629.993,427.034 625.527,416.667C623.375,411.67 620.84,408.088 618.296,405.861C616.888,404.628 615.734,403.677 614.685,403.8C612.004,404.113 610.958,405.806 609.855,409.707C609.109,412.345 606.701,414.167 603.959,414.167C601.218,414.167 598.81,412.345 598.064,409.707Z" style="fill:rgb(249,148,185);fill-opacity:0.5;"/>
    </g>
</svg>
